<svg width="99" height="122" viewBox="0 0 99 122" fill="none" xmlns="http://www.w3.org/2000/svg">
<rect x="19.7681" y="68.011" width="60.3222" height="41.8544" fill="#D4C7BA"/>
<path d="M27.8976 109.952C27.9644 110.02 28.4009 110.055 28.7657 110.148C29.1131 110.237 29.4825 110.345 30.214 110.405C31.9586 110.548 32.4691 110.329 32.9595 110.26C33.3817 110.201 33.8859 110.107 34.5374 109.808C34.9554 109.616 35.1377 109.253 35.4246 108.877C35.6889 108.53 35.8466 108.261 36.1082 108.047C36.4156 107.796 36.5728 107.509 36.7163 107.227C36.8784 106.908 37.0791 106.689 37.2222 106.449C37.5408 105.914 38.4757 106.923 38.977 107.319C39.3138 107.585 39.8789 107.712 40.6351 107.849C41.7495 108.05 42.9485 108.055 43.6498 108.089C43.7513 108.094 43.0093 108.277 41.8322 108.404C41.1352 108.479 40.2541 108.717 39.6558 108.881C38.7626 109.126 38.3638 109.37 38.1782 109.532C38.1004 109.6 38.0929 109.677 38.0843 109.755C38.0757 109.832 38.0757 109.916 38.1592 109.985C38.2428 110.054 38.4099 110.105 40.7017 110.106C42.9936 110.107 47.4051 110.056 50.1957 109.97C52.9864 109.885 54.0224 109.767 54.7065 109.706C56.0817 109.583 56.455 109.526 56.7599 109.389C57.0965 109.237 57.9539 109.387 58.5233 109.576C59.0316 109.744 59.7303 109.678 60.0427 109.764C60.3529 109.849 60.5739 110.156 60.8701 110.175C60.9245 110.178 60.9132 110.073 60.8797 109.979C60.7234 109.539 60.3744 109.338 60.0288 109.201C59.3784 108.943 59.1419 108.774 58.9054 108.56C58.6794 108.356 58.7018 108.09 58.677 108.004C58.5872 107.694 58.0623 108.14 57.3546 108.166C56.7275 108.189 56.29 108.276 55.9016 108.328C55.507 108.381 55.2595 108.431 54.0467 108.456C52.9177 108.48 50.7452 108.465 49.5509 108.448C47.8989 108.425 47.4284 108.329 46.9648 108.252C46.5389 108.181 46.162 108.124 45.9346 108.064C45.7266 108.009 44.8186 108.004 43.5281 107.987C42.6468 107.975 42.314 107.867 41.8836 107.841C41.499 107.818 41.2 107.713 40.862 107.645C40.4944 107.57 40.1194 107.56 39.7986 107.5C39.7148 107.484 39.6302 107.491 39.5788 107.559C39.4498 107.729 39.5938 108.358 39.8376 109.236C40.0675 110.064 40.4546 110.566 40.7903 110.932C41.3142 111.503 42.0396 111.814 42.7872 112.078C43.2606 112.245 43.9527 112.393 45.0158 112.565C46.0789 112.737 47.4993 112.906 48.3313 113.018C49.7199 113.206 50.2763 113.405 50.6831 113.396C51.0658 113.388 51.8268 113.965 53.0664 114.59C53.5713 114.845 54.4316 115.057 55.0876 115.231C56.1834 115.52 57.0774 115.66 57.9025 115.916C59.1759 116.31 59.4092 116.685 59.8396 116.959C60.222 117.203 61.0428 117.131 61.6206 117.242C62.1721 117.347 63.0531 117.148 63.839 116.859C64.1034 116.761 64.3717 116.687 65.4687 116.534C66.3974 116.405 68.0864 116.212 69.0144 116.082C70.0644 115.935 70.2801 115.764 70.4654 115.586C70.7797 115.282 71.1044 113.997 71.4199 113.133C71.5498 112.777 71.5131 112.551 71.505 112.44C71.4847 112.162 70.7905 112.141 70.2575 111.995C70.0499 111.939 69.9104 111.816 69.8008 111.73C69.7482 111.69 69.7413 111.612 69.7661 111.56C69.8898 111.302 70.2628 111.15 70.4408 110.885C70.6032 110.643 70.7864 110.347 70.9472 110.013C71.0922 109.712 71.226 109.458 71.3019 109.133C71.3802 108.798 71.4792 108.535 71.5468 108.218C71.6152 107.898 71.8326 107.425 71.9939 107.039C72.1084 106.765 72.2549 106.382 72.3653 106.014C72.3887 105.935 72.4241 105.868 72.4413 105.064C72.4585 104.259 72.4585 102.719 72.4752 101.866C72.4997 100.619 72.66 100.21 72.796 100.022C72.8182 99.9912 72.6965 99.9705 72.62 99.9872C72.3096 100.055 72.105 100.311 71.8435 100.457C71.5578 100.616 71.2948 100.721 71.0586 100.944C70.9919 101.007 70.8573 100.979 70.8221 101.012C70.6149 101.212 71.1915 101.575 71.3523 101.841C71.5632 102.055 71.7992 102.293 72.044 102.567C72.1035 102.636 72.1537 102.704 72.3066 102.927" stroke="white" stroke-width="4" stroke-linecap="round"/>
<path d="M79.1299 72.3144C79.1299 72.4498 79.0965 73.501 79.0292 75.0303C78.9935 75.8404 78.8606 76.1756 78.6919 76.4846C78.4408 76.9446 78.2195 75.6495 78.0671 75.2134C77.8917 74.7116 77.9987 74.384 78.1504 74.025C78.1864 73.9397 78.2013 73.8712 78.1597 73.8448C77.905 73.6828 77.6291 74.1081 77.1994 74.6109C76.5885 75.3257 76.2618 75.4413 75.6134 75.8085C75.0704 76.116 74.5746 76.0741 74.2277 76.1174C73.9447 76.1528 73.6793 76.2115 73.2084 76.2541C71.9281 76.3698 71.6538 76.1264 71.3834 75.9728C71.3172 75.9352 71.2487 75.9213 71.2477 75.938C71.2277 76.2675 72.1217 76.3982 72.4954 76.5274C72.9012 76.6677 73.6409 76.9109 74.0566 77.1253C74.1346 77.1655 74.1999 77.2022 74.1173 77.1943C73.3787 77.1231 72.8195 76.8279 72.4554 76.5799C72.1368 76.363 71.8564 76.0926 71.5776 75.9641C71.4272 75.8948 71.2649 75.8869 71.1971 75.9121C70.6539 76.1132 72.8762 77.3171 73.5669 77.7832C73.9502 78.0419 74.4186 78.2278 74.7235 78.3221C75.0175 78.4131 75.4142 78.6031 75.9041 78.7836C76.1737 78.8829 76.5287 78.6395 77.2166 78.4013C77.7147 78.2289 78.5395 78.0278 79.329 77.8721C80.8436 77.5736 81.8284 77.5447 82.1408 77.604C82.2507 77.6248 82.2026 77.7816 81.2914 78.6718C80.3802 79.562 78.5922 81.2203 77.621 81.9561C76.6497 82.692 76.5495 82.4551 76.4644 82.3077C76.2605 81.9543 76.0421 81.7505 75.6294 81.2475C75.1708 80.6885 74.7427 80.4686 74.4723 80.2207C74.2005 79.9714 73.8485 79.683 73.4768 79.2131C73.2078 78.873 73.0545 78.5549 72.9104 78.3398C72.8541 78.2558 72.8843 78.6375 73.0519 79.0369C73.3654 79.7839 74.012 80.6511 74.8779 81.5716C75.3609 82.085 76.0613 82.5597 76.6229 82.9227C77.5856 83.5451 78.2671 83.7657 78.6461 83.8852C78.9703 83.9874 79.3806 84.0903 79.8272 84.2524C80.9299 84.6524 82.2857 85.0313 82.3535 85.0482C82.4339 85.0682 82.1186 85.1677 81.599 85.3966C80.4289 85.9123 79.5867 86.347 79.3178 86.3983C78.9218 86.4738 78.4737 86.365 78.0445 86.2204C77.5416 86.0509 76.7723 85.2594 75.9036 84.2606C75.0438 83.2718 74.6749 82.571 74.5645 82.3146C74.5355 82.2473 74.5057 82.1782 74.4969 82.2025C74.3578 82.5848 75.242 84.1298 75.5851 84.9874C75.7144 85.3108 75.9216 85.9327 76.0325 86.3888C76.1284 86.7836 75.7884 86.9793 75.679 87.0647C75.6248 87.107 75.5529 87.1162 75.5101 87.0826C75.2676 86.8923 75.2987 86.4517 75.2395 86.3035C75.1742 86.1402 75.2309 86.9531 75.2309 87.138C75.2309 87.5521 75.3828 85.8025 75.5089 85.1025C75.5427 84.9146 75.5347 84.7441 75.5347 84.7162C75.5347 84.3329 75.6694 85.6445 75.72 86.7534C75.7304 86.9816 75.8203 87.0301 75.98 87.0731C77.2013 87.4024 78.5547 87.3726 78.8251 87.4921C79.1022 87.6145 79.3649 87.7654 79.61 87.9533C79.9482 88.2127 80.4101 88.5838 80.6653 88.9189C80.9292 89.2655 81.2709 90.3405 81.5261 90.8759C81.6823 91.2035 81.8978 91.4902 81.9234 91.8243C81.9916 92.7156 81.9322 94.0541 81.8309 94.4648C81.7359 94.8501 81.6456 95.1996 81.46 95.4993C81.2075 95.9072 80.7686 96.26 80.4141 96.5931C80.1448 96.8461 79.7903 97.063 79.4183 97.2774C79.0201 97.5069 78.3582 97.7973 77.8149 98.004C77.4343 98.1487 77.1227 98.226 76.7348 98.4393C76.2311 98.7164 76.0087 98.9952 75.6962 99.1662C75.4293 99.3123 75.0638 99.269 74.7425 99.3969C74.6744 99.4397 74.6242 99.4905 74.565 99.5336C74.5057 99.5767 74.4389 99.6105 74.3194 99.6454" stroke="white" stroke-width="4" stroke-linecap="round"/>
<path d="M69.6861 68.0712C69.7529 68.003 70.156 67.9686 72.3942 67.9684C73.809 67.9682 74.2921 68.3952 74.6053 68.5322C75.1098 68.7527 75.7444 69.147 76.0315 69.3267C76.1192 69.3816 76.2163 69.471 76.1928 69.4723C75.7343 69.4973 75.0759 69.0301 74.2873 68.9683C74.2356 68.9642 74.3923 69.0444 74.9711 69.3244C75.5499 69.6044 76.5525 70.112 77.186 70.4581C78.0711 70.9417 78.3446 71.1986 78.4373 71.3178C78.5419 71.4524 78.5476 71.6257 78.556 71.7621C78.5645 71.9006 78.2975 71.0037 77.7916 69.4662C77.6014 68.8879 77.4863 68.7408 77.3511 68.6539C77.2159 68.567 77.0488 68.5501 76.8708 68.6006C76.4871 68.7095 76.2528 69.027 76.1431 69.3082C76.0328 69.5912 76.0664 69.8649 76.0831 70.0695C76.1385 70.7478 77.2453 71.4022 77.5091 71.9911C77.7138 72.4482 77.4848 72.8395 77.3921 72.8825C77.2954 72.9275 77.2316 72.3313 77.0888 71.4198C76.7874 69.4965 76.3378 68.9449 76.2938 68.687C76.2834 68.6263 76.4857 68.7029 77.223 68.7457C77.9602 68.7885 79.2971 68.8393 79.9523 68.9078C80.6076 68.9762 80.5407 69.0608 80.4478 69.1467C80.0104 69.5511 79.5123 70.0346 79.1994 70.131C79.0683 70.1714 79.2707 69.5336 79.3563 69.9833C79.4419 70.433 79.4753 71.8206 79.6095 73.2969C79.7437 74.7731 79.9776 76.2961 80.0815 77.6475C80.1853 78.9989 80.1518 80.1327 80.1012 80.8606C80.0006 82.3073 79.529 82.9376 79.249 83.2998C78.9948 83.6286 78.5325 83.9488 77.7068 84.8353C77.1788 85.4024 76.8776 86.2378 76.6581 86.5642C76.3803 86.9772 76.0512 87.2305 75.7889 87.4956C75.3976 87.8911 75.24 88.2048 75.0544 88.4871C74.8427 88.8091 74.5989 89.0427 74.4128 89.2991C74.3276 89.4165 74.3113 89.5729 74.2941 89.667C74.2307 90.0134 75.6714 89.2334 76.5115 88.9591C76.8665 88.8432 77.1622 88.7196 77.7005 88.5066C78.9852 87.9335 79.6242 87.4402 80.223 86.9277C80.4541 86.7367 80.5377 86.686 80.6238 86.6336" stroke="white" stroke-width="2" stroke-linecap="round"/>
<path d="M81.3416 105.346C81.3416 106.145 81.1842 108.234 80.2337 109.687C79.3958 110.968 78.4818 111.865 78.2027 112.068C78.1598 112.031 78.3172 111.712 78.8706 110.671C79.4239 109.63 80.3684 107.877 81.3416 106.795" stroke="white" stroke-width="15" stroke-linecap="round"/>
<path d="M20.6751 69.3977C20.5886 69.3977 19.7502 69.946 19.2148 70.3729C18.938 70.5938 19.8278 69.6394 20.5602 68.9596C20.7378 68.7948 20.8959 68.7073 21.0089 68.6746C21.3275 68.5825 21.6552 68.7934 22.6602 68.4926C23.0738 68.3402 23.223 68.3153 23.3161 68.2526C23.3599 68.2148 23.3968 68.165 23.4721 68.0759" stroke="white" stroke-width="3" stroke-linecap="round"/>
<path d="M21.4955 68.7179C21.8043 68.6556 22.4749 68.4045 22.7937 68.24C22.9886 68.1395 23.3699 67.989 23.6888 67.8497C23.8938 67.7601 24.0927 67.7111 24.2918 67.6544C24.396 67.6248 24.491 67.56 24.5286 67.5472C24.6282 67.5133 24.2318 67.7851 23.8913 68.0674C23.4386 68.4427 22.7057 68.7791 21.9115 69.0808C20.9343 69.4521 20.6639 69.4604 19.9573 69.7236C19.1769 70.0144 19.0476 70.2406 18.6875 70.498C18.3192 70.7612 18.2763 71.2965 18.1829 71.5871C18.0956 71.8587 18.0645 72.1659 18.0026 72.4053C17.9011 72.7978 17.8288 73.2354 17.6735 73.6699C17.5383 74.0479 17.4305 74.4824 17.3686 74.9216C17.2524 75.7457 17.4797 76.0308 17.6226 76.2325C17.8403 76.5398 18.3241 76.7363 18.6718 76.7933C18.8187 76.8174 19.0543 76.7997 19.1932 76.7748C19.3321 76.7498 19.369 76.7 19.3634 76.6432C19.3506 76.5124 19.1964 76.4224 19.0724 76.3533C19.0111 76.3192 18.9484 76.2967 19.4766 76.2838C20.0049 76.271 21.1248 76.271 21.7018 76.3021C22.2787 76.3333 22.2787 76.3956 22.2664 76.4526C22.22 76.6675 21.9938 76.8488 21.8194 77.0631C21.6821 77.232 21.5586 77.5531 21.3665 78.0108C21.111 78.6198 20.9492 79.1147 20.7944 79.4718C20.3605 80.4728 20.2783 80.9765 20.3075 80.9118C20.4471 80.603 20.7922 79.7129 21.0191 79.1948C21.246 78.6766 21.3322 78.552 21.4012 78.4691C21.4702 78.3862 21.5194 78.3488 21.5632 78.3919C21.8649 78.6882 21.5835 79.7258 21.4525 80.3421C21.3802 80.6819 21.1979 80.9403 21.0176 81.3363C20.858 81.6868 20.725 82.0604 20.5949 82.3937C20.3964 82.9019 20.414 83.2183 20.3521 83.9513C20.2529 85.1265 20.3271 85.9884 20.3085 86.1517C20.2798 86.4032 20.2648 86.8045 20.2277 87.1213C20.195 87.4011 20.153 87.7245 20.0849 88.3215C20.026 88.8383 20.0165 89.2611 19.9792 89.4934C19.9403 89.7353 19.8434 90.5519 19.6569 91.6216C19.5935 92.0682 19.5812 92.1823 19.5564 92.2827C19.5439 92.3333 19.5316 92.3832 19.519 92.4346" stroke="white" stroke-width="3" stroke-linecap="round"/>
<path d="M23.1365 75.8178C23.4199 75.7056 24.4119 75.3782 24.8201 75.283C25.0807 75.2222 25.5203 75.1758 25.8028 75.1442C25.9527 75.1275 25.2037 75.6131 24.5091 76.2972C23.8068 76.9889 23.4605 77.6286 23.3546 77.8682C23.0813 78.4866 24.3176 76.4719 24.2805 76.5972C24.2277 76.7755 23.9222 77.3862 23.4753 78.2227C23.2868 78.5482 23.176 78.6728 23.0759 78.7993C22.9757 78.9259 22.8896 79.0505 22.7262 79.2544" stroke="white" stroke-linecap="round"/>
<path d="M21.4606 90.2482C21.4606 90.3516 21.5187 90.7063 21.7385 91.3007C21.8594 91.6276 22.0318 91.9255 22.2446 92.2299C22.5346 92.6448 22.7359 93.0984 22.9487 93.4703C23.0881 93.714 23.264 93.9309 23.4475 94.2058C23.6803 94.5545 23.9831 94.9112 24.1809 95.1788C24.3405 95.3948 25.1352 96.2419 25.7209 96.9016C25.933 97.1406 26.2987 97.5093 26.5647 97.7786C26.7416 97.9577 26.8725 98.2089 27.0853 98.4912C27.2881 98.7603 27.5027 99.0404 27.7307 99.3083C28.0053 99.631 28.2658 99.7543 28.5738 99.9103C28.8377 100.044 29.0878 100.022 29.1976 100.066C29.5354 100.203 29.2797 101.031 29.206 101.343C29.1364 101.638 29.0597 101.937 28.9787 102.249C28.8778 102.638 28.6645 103.315 28.5386 103.831C28.4605 104.152 28.3996 104.507 28.3624 104.856C28.3281 105.178 28.2816 106.531 28.2451 107.411C28.2225 107.955 28.1496 108.191 28.0548 108.451C27.9857 108.64 27.4649 109.256 26.6301 110.154C26.0279 110.801 25.5259 111.147 25.1162 111.384C24.3579 111.823 23.3291 111.801 22.4754 111.728C21.777 111.668 20.892 111.15 20.1653 110.653C19.6943 110.331 19.3065 109.725 18.882 109.081C18.4456 108.418 18.1905 107.749 17.9929 107.032C17.8739 106.6 17.8098 106.006 17.7722 105.335C17.7346 104.664 17.7491 103.929 17.9236 102.433C18.0981 100.936 18.4321 98.7009 18.6187 97.4979C18.8215 96.1899 18.8933 95.88 18.9808 95.4578C19.1489 94.6473 19.5234 94.3934 19.9479 93.9859C20.3707 93.5799 20.4476 93.2205 20.6386 92.3016C20.7152 91.9327 20.7996 91.6608 20.9759 91.3634C21.1603 91.0522 21.4157 90.7107 21.4751 90.4273C21.5777 90.1893 21.6512 89.9964 21.6804 89.8556C21.6952 89.7883 21.7097 89.7295 21.7246 89.6689" stroke="white" stroke-linecap="round"/>
<path d="M19.7884 108.118C19.8755 108.177 19.993 108.295 20.3354 108.642C21.6513 109.976 22.1348 110.197 22.2664 110.234C22.5838 110.324 22.882 109.961 23.2266 109.768C23.8094 109.44 24.2304 109.115 24.5475 108.913C24.8319 108.732 25.0243 108.446 25.1567 108.208C25.2857 107.976 25.3913 107.733 25.538 107.406C25.6754 107.1 25.6703 106.812 25.729 106.515C25.8042 106.134 25.8023 105.624 25.8974 105.068C26.1075 103.84 26.4175 103.499 26.5722 103.232C26.801 102.836 26.8145 102.474 26.8439 101.941C26.8506 101.82 26.8875 101.761 26.8589 101.709C26.7034 101.424 26.3612 101.404 25.8705 100.975C25.5172 100.666 25.349 100.306 25.0414 100.016C24.4138 99.4254 24.2339 99.1616 23.7289 98.5023C23.4198 98.0987 23.1337 97.617 22.9502 97.4014C22.7172 97.1275 22.5907 96.904 22.3929 96.7031C22.1943 96.5013 22.0336 96.2802 21.799 96.0498C21.4067 95.6644 21.1825 95.2704 20.8751 94.7586C20.7927 94.6214 20.7574 94.4843 20.8366 95.0631C20.9158 95.642 21.1191 96.9361 21.2166 97.5366C21.2928 98.0059 21.0958 96.9713 20.7952 95.5754C20.6414 94.8607 20.5224 94.6313 20.4487 94.3343C20.3574 93.9665 20.2874 93.6661 20.1994 93.3317C20.1596 93.1804 20.1409 92.9825 20.0748 92.8337C20.0592 92.7985 20.0524 92.8613 20.3864 94.818C20.7204 96.7748 21.3884 100.628 21.7398 102.73C22.0912 104.833 22.1057 105.068 22.1495 105.469C22.1933 105.869 22.2659 106.428 22.3033 106.753C22.3407 107.077 22.3407 107.151 22.2028 106.328C22.0648 105.506 21.7889 103.785 21.5596 102.642C21.2241 100.968 20.933 100.409 20.8452 100.408C20.7836 100.408 20.7574 100.584 20.6841 101.424C20.6108 102.265 20.5092 103.809 20.4641 104.656C20.419 105.502 20.4335 105.605 20.5063 105.651C20.5792 105.697 20.7099 105.682 20.8425 105.616C20.9752 105.549 21.1059 105.432 21.4201 104.981C22.2618 103.775 22.7949 102.787 22.7885 102.689C22.7144 101.551 21.8571 104.462 21.8274 104.737C21.8167 104.835 21.9139 104.85 22.0021 104.835C22.6162 104.525 23.323 104.048 23.3892 103.937C23.3973 103.885 23.3538 103.841 23.2649 103.795" stroke="white" stroke-width="4" stroke-linecap="round"/>
<path d="M31.908 65.993C31.6177 66.5781 31.4739 67.3146 31.328 67.6079C30.99 68.2874 32.7267 68.4421 33.5019 68.5164C34.2919 68.592 35.0495 68.8831 36.0896 68.9816C37.0747 69.0749 37.9993 69.4712 39.1846 69.6432C41.5604 69.9879 42.5489 69.8151 43.8286 69.9372C46.8942 70.2295 49.308 70.1092 51.474 70.2312C54.4513 70.3989 55.3239 70.1092 56.1484 69.9629C57.3454 69.7506 59.0983 69.7181 60.1152 69.4241C61.2379 69.0995 62.051 69.1301 62.8263 68.9339C63.6015 68.7376 64.6612 68.4451 65.6324 68.1746C65.8764 68.1066 66.1623 68.0041 63.8911 68.2209C61.6199 68.4377 56.7814 68.9713 54.0014 69.2462C49.7273 69.6689 47.7925 69.6681 46.1637 69.4241C44.9802 69.2468 43.9135 69.0801 41.6924 68.7141C39.6285 68.374 38.7818 68.4921 38.5865 68.4921C38.5422 68.4921 38.9661 68.4921 41.7977 68.5406C44.6292 68.5891 49.9468 68.6862 50.0992 68.7119C50.2516 68.7376 45.0778 68.6891 42.3167 68.6399C38.9722 68.5802 38.3463 68.4436 37.8396 68.3701C37.5741 68.3316 37.2851 68.3451 40.4186 68.2723C43.5521 68.1996 50.1152 68.054 53.6159 67.9306C58.4249 67.7609 60.8374 67.319 62.099 66.5355C62.4223 66.3346 62.6782 65.9989 62.7065 65.8247C62.8446 64.9748 59.3146 66.2356 55.1199 66.6031C52.7036 66.8148 49.6797 66.728 47.9333 66.7038C45.0255 66.581 43.4809 66.484 40.219 65.7755C39.5555 65.602 39.3639 65.505 38.731 65.258" stroke="white" stroke-width="2" stroke-linecap="round"/>
<path d="M27.0806 68.1547C24.586 68.7706 21.6015 71.0065 20.0009 72.7066C19.5954 73.1374 19.8035 73.7773 19.9968 74.1705C20.5176 75.2298 23.8411 74.7358 26.6832 74.1477C27.1889 74.0052 27.4639 73.9495 27.743 73.8651C28.0221 73.7807 28.2971 73.6693 28.747 73.3858" stroke="black" stroke-linecap="round"/>
<path d="M68.2408 68.661C68.904 68.661 70.4537 68.8838 72.4809 69.6414C74.1612 70.2695 75.293 71.0218 75.6537 71.3863C75.824 71.5583 75.8495 71.8065 75.7129 72.1996C75.3651 73.2005 74.6864 73.8348 74.1881 74.0314C73.9098 74.1166 73.5799 74.1723 72.86 74.201C72.1401 74.2297 71.0403 74.2297 69.7405 74.3984" stroke="black" stroke-linecap="round"/>
<path d="M27.5806 74.0609C26.3624 75.5171 25.031 77.429 24.0011 79.0887C23.0369 80.6426 22.3647 83.9393 21.9431 86.2047C21.5831 88.1392 22.798 91.6476 23.882 94.1054C24.5163 95.5437 25.9075 96.8906 27.4298 98.3773C29.1866 100.093 32.5581 101.781 36.33 103.551C38.9293 104.771 41.4534 105.109 45.8735 105.417C48.9148 105.63 53.5931 105.671 56.606 105.589C62.7546 105.422 64.3481 103.595 65.4037 103.003C66.8008 102.221 67.8475 100.841 68.7099 99.9947C69.6082 99.1131 71.4469 95.7448 72.4609 93.3039C73.7817 90.1245 72.7967 85.8225 72.4084 84.5569C71.7729 82.4853 71.3536 80.8715 70.8812 79.8582C70.742 79.6312 70.5771 79.4641 70.3821 79.1275C70.1871 78.7908 69.9672 78.2896 69.5739 77.6045" stroke="black" stroke-linecap="round"/>
<path d="M29.9136 101.187C29.7486 101.803 29.3036 102.925 28.9154 104.051C28.5975 104.972 28.5804 106.131 28.6629 107.058C28.6966 107.437 28.9104 107.596 29.1878 107.766C29.8223 108.153 30.9067 108.274 32.044 108.219C33.4146 108.151 34.1862 106.648 34.9103 105.746C35.0777 105.52 35.2427 105.298 35.3827 105.071C35.5227 104.845 35.6326 104.623 35.9126 104.224" stroke="black" stroke-linecap="round"/>
<path d="M60.242 105.743C60.6286 106.693 61.9551 108.828 63.0716 109.455C64.6262 110.328 67.7341 109.513 68.7373 109.064C69.7812 108.597 69.8505 107.211 70.0454 106.141C70.0738 105.358 69.8538 104.454 69.438 103.667C69.2422 103.327 69.0773 103.104 68.7406 102.537" stroke="black" stroke-linecap="round"/>
<path d="M72.74 92.0746C73.0716 91.7388 74.5064 90.7313 75.957 90.1913C76.6559 89.9312 77.5126 89.8809 78.3166 89.9644C78.688 90.003 78.9557 90.215 79.1523 90.4681C79.5579 90.9902 79.6272 91.678 79.7106 92.2669C79.8009 92.9057 79.5739 93.4785 79.214 93.9553C78.1656 95.3438 76.2994 96.1785 75.1055 96.7413C74.0892 97.2203 73.0233 97.137 71.9385 97.4449C71.6868 97.5301 71.4669 97.5858 71.2436 97.6702C71.0203 97.7546 70.8003 97.866 70.407 98.1495" stroke="black" stroke-linecap="round"/>
<path d="M26.0808 87.4341C25.9142 88.3267 26.0241 90.3534 26.8274 92.1522C27.346 93.3138 28.0772 94.2919 28.7445 95.0251C29.4369 95.7858 30.2435 96.543 31.5191 97.7791C32.678 98.902 34.2962 99.4691 35.4085 100.06C37.031 100.921 39.352 101.271 41.3467 101.551C43.8861 101.908 46.1176 101.778 47.7665 101.918C49.6257 102.076 51.8367 102.115 53.5723 101.947C54.692 101.839 56.0127 101.555 57.2383 101.272C58.3042 101.026 59.6221 100.32 61.236 99.4185C62.6106 98.651 63.5148 98.2372 64.2664 97.3935C65.0708 96.4904 65.6278 95.5946 65.9345 94.6935C66.2709 93.7049 66.6843 92.7259 66.9068 91.6848C66.9626 91.43 67.0176 91.2072 67.046 90.8976C67.0743 90.5879 67.0743 90.1981 67.0743 89.7965" stroke="black" stroke-linecap="round"/>
<path d="M38.2455 76.803H38.5788" stroke="black" stroke-linecap="round"/>
<path d="M54.5762 77.478L54.9095 77.6467" stroke="black" stroke-linecap="round"/>
<path d="M43.4982 93.8857C43.9224 93.9926 44.7757 94.5309 45.6826 95.476C46.4369 96.2621 47.1226 96.8556 47.8446 97.423C48.0319 97.5591 48.2432 97.6661 48.4578 97.7748C48.6723 97.8834 48.8836 97.9904 49.2614 98.2627" stroke="black" stroke-linecap="round"/>
<path d="M43.0179 97.7764C43.3893 97.7229 44.1353 97.2933 44.9358 96.7786C45.8963 96.1034 46.8569 95.3479 47.4428 94.8081C47.7118 94.5892 47.9231 94.4822 48.461 94.2099" stroke="black" stroke-linecap="round"/>
<path d="M29.7193 101.833C29.7193 101.779 29.7326 101.657 29.776 101.549C29.8186 101.443 29.8663 101.332 29.9199 101.224C29.9669 101.115 29.9936 101.034 30.017 100.98C30.0271 100.952 30.0337 100.926 30.0606 100.857" stroke="black" stroke-linecap="round"/>
<path d="M69.8179 74.3042C69.7924 74.3367 69.6134 74.4015 69.375 74.4246C69.3037 74.4316 68.915 74.441 68.3494 74.4377C68.1466 74.4345 68.1148 74.4281 68.0825 74.4215C68.0501 74.415 68.0183 74.4085 67.9855 74.4019" stroke="black" stroke-linecap="round"/>
<path d="M68.3332 74.6503C68.3965 74.8758 68.6519 75.3929 68.9399 75.912C69.3565 76.4311 69.6118 76.9482 69.8523 77.4673C69.9007 77.5975 69.9324 77.7259 69.9651 78.0525" stroke="black" stroke-linecap="round"/>
<path d="M67.8259 74.378C67.8437 74.4591 68.0923 74.7838 68.3445 75.0933C68.4932 75.2758 68.6488 75.5105 68.8008 75.7589C69.2007 76.4125 69.2488 76.589 69.3519 76.7887C69.4293 76.9385 69.5442 77.0606 69.6606 77.2598C69.7408 77.431 69.813 77.5866 69.8622 77.6861C69.8847 77.7318 69.9025 77.7677 69.9207 77.8047" stroke="black" stroke-linecap="round"/>
<path d="M27.7544 68.0846C27.8485 68.03 28.2246 68.0025 28.5772 68.0366C29.1488 68.0918 29.5233 68.344 29.7397 68.4809C29.9465 68.6116 30.2123 68.6995 30.4355 68.7889C30.6981 68.8942 30.9419 69.0007 31.2121 69.0762C31.5401 69.168 31.7526 69.288 32.0833 69.3909C32.4609 69.5082 32.8469 69.6164 33.2044 69.726C33.6479 69.8619 33.9543 69.9037 34.205 69.9452C34.4646 69.9881 34.6977 70.0548 35.0422 70.1229C35.3848 70.1907 35.6842 70.2871 35.9207 70.3486C36.2528 70.4351 36.5216 70.4923 36.7922 70.5403C37.0726 70.5901 37.3996 70.6425 37.7309 70.684C38.1117 70.7316 38.3999 70.8346 39.0738 71.0117C39.4761 71.1175 39.7237 71.149 40.0346 71.2038C40.5274 71.2907 41.1561 71.2722 41.5878 71.2929C41.9945 71.3124 42.4256 71.3542 43.0194 71.375C43.4019 71.3883 43.6959 71.4503 43.9665 71.4911C44.2523 71.5343 44.8414 71.5734 45.4311 71.6075C45.8799 71.6334 46.2231 71.628 47.0668 71.6485C47.8434 71.6674 49.3283 71.6555 50.14 71.6487C51.2626 71.6394 51.6135 71.5874 52.0116 71.5667C52.1948 71.5571 52.5709 71.5324 53.0435 71.5256C53.8661 71.5138 55.1391 71.4642 55.5513 71.4162C56.0695 71.3559 56.5026 71.3682 56.9768 71.3001C57.4073 71.2382 57.7607 71.204 58.0246 71.1291C58.26 71.0623 58.7984 70.9586 59.3076 70.8691C59.6423 70.8103 60.0703 70.7394 60.3619 70.6979C61.0215 70.6042 61.8683 70.2058 62.5622 69.994C63.0719 69.8384 63.4345 69.8093 63.807 69.6925C64.0444 69.6181 64.2597 69.5622 64.5165 69.4873C64.7705 69.4132 65.0428 69.398 65.4214 69.2958C65.6743 69.2276 65.9483 69.1657 66.2458 69.0769C66.4743 69.0086 66.6917 68.9334 66.9215 68.8714C67.1968 68.7972 67.4213 68.7692 67.6377 68.6664C67.692 68.6457 67.7455 68.6321 67.8065 68.6184C67.8675 68.6046 67.9344 68.5911 68.1249 68.5771" stroke="black" stroke-linecap="round"/>
<path d="M26.4706 68.3512C26.4917 68.3454 26.538 68.3297 26.6131 68.318C26.64 68.3138 26.7036 68.3063 26.8153 68.282C26.9365 68.2556 27.0053 68.2242 27.0475 68.2086C27.2147 68.147 27.2638 68.144 27.3217 68.1381C27.366 68.1336 27.4374 68.1283 27.5661 68.1186C27.6493 68.1124 27.7675 68.0896 27.8333 68.0777C27.9087 68.0619 27.995 68.0463 28.172 68.0268C28.2726 68.0189 28.3949 68.015 28.5209 68.011" stroke="black" stroke-linecap="round"/>
<path d="M68.7407 102.511C68.7262 102.482 68.6969 102.415 68.6493 102.315C68.5944 102.222 68.4554 101.956 68.2829 101.599C68.2195 101.463 68.2049 101.419 68.1679 101.329" stroke="black" stroke-linecap="round"/>
<path d="M9.73865 37.6049C9.75179 37.6324 9.79819 37.6945 9.84962 37.7431C9.91335 37.8032 10.0398 37.8982 10.1483 37.9973C10.1908 38.0362 10.2495 38.082 10.4455 38.2264C10.6057 38.3443 10.9011 38.5351 11.1323 38.6734C11.3634 38.8116 11.5244 38.887 11.6238 38.931C11.756 38.9852 11.8753 39.03 12.1313 39.1179C12.3018 39.1715 12.5548 39.2434 12.8155 39.3176" stroke="#D4C7BA" stroke-linecap="round"/>
<path d="M9.87805 37.2727C9.9373 37.3002 10.0637 37.335 10.206 37.3522C10.2556 37.3582 10.315 37.3557 10.3668 37.3591C10.4186 37.3626 10.4614 37.3694 10.9894 37.4158C11.5175 37.4621 12.5295 37.5477 13.5723 37.636" stroke="#D4C7BA" stroke-linecap="round"/>
<path d="M10.9634 37.8644C10.9503 37.8644 10.9372 37.8644 10.9534 37.8781C10.9696 37.8918 11.0156 37.9192 11.3351 37.9693C11.6545 38.0194 12.246 38.0913 12.8554 38.1654" stroke="#D4C7BA" stroke-linecap="round"/>
<path d="M10.5453 38.2795C10.5387 38.2795 10.5254 38.2898 10.5072 38.3122C10.453 38.379 10.4921 38.5008 10.5053 38.5285C10.512 38.5424 10.5186 38.5561 10.6879 38.6727C10.8572 38.7894 11.1891 39.0086 11.6065 39.2483C12.024 39.488 12.5169 39.7415 12.7658 39.8669C13.0148 39.9923 13.005 39.9821 12.9948 39.9715" stroke="#D4C7BA" stroke-linecap="round"/>
<path d="M80.7384 36.6578C80.6768 36.6364 80.6152 36.615 80.3627 36.5852C80.1102 36.5555 79.6687 36.518 79.4053 36.488C79.0701 36.4366 78.9755 36.3985 78.9238 36.3849C78.8927 36.3873 78.8516 36.4087 78.7626 36.4632" stroke="#D4C7BA" stroke-linecap="round"/>
<path d="M78.9338 36.0416C78.8565 36.0416 78.7421 36.0469 78.7238 36.047C78.6312 36.0474 78.8971 35.966 79.0034 35.939C79.0284 35.9326 79.0424 35.9122 79.04 35.9039C79.0377 35.8956 79.0172 35.8956 79.0169 35.8876C79.0165 35.8796 79.0371 35.8635 79.0117 35.8552C78.9186 35.8249 78.8045 35.8577 78.4471 35.8953C78.1257 35.9222 77.5199 35.965 77.1976 35.9898C76.8752 36.0145 76.8547 36.0198 76.8024 36.0416" stroke="#D4C7BA" stroke-linecap="round"/>
<path d="M79.6339 35.8388C79.6236 35.8388 79.4489 35.8388 79.205 35.8361C79.1305 35.8353 79.1562 35.8281 79.1823 35.82C79.2084 35.8119 79.234 35.8012 79.2575 35.7956C79.281 35.7901 79.3015 35.7901 78.6498 35.7901C77.9981 35.7901 76.6736 35.7901 75.3089 35.8063" stroke="#D4C7BA" stroke-linecap="round"/>
<path d="M80.6917 48.0141C80.6815 48.0141 80.6712 48.0141 79.8137 48.2362C78.9561 48.4583 77.2517 48.9025 76.3505 49.134C75.4493 49.3655 75.4031 49.3709 75.3665 49.379C75.3298 49.3871 75.3042 49.3978 75.3012 49.4033C75.2983 49.4088 75.3188 49.4088 75.3422 49.4062C75.3656 49.4035 75.3913 49.3981 75.4333 49.3926" stroke="#D4C7BA" stroke-linecap="round"/>
<path d="M80.7073 48.4358C80.7073 48.4411 80.7073 48.4465 80.6919 48.4626C80.6765 48.4787 80.6457 48.5055 79.7981 48.7119C78.9505 48.9184 77.2871 49.3037 76.3969 49.5049C75.5066 49.7061 75.4398 49.7114 75.3875 49.7222C75.3351 49.733 75.2992 49.7491 75.2679 49.7573C75.2365 49.7656 75.2108 49.7656 75.1844 49.7656" stroke="#D4C7BA" stroke-linecap="round"/>
<path d="M76.9424 50.6333C77.0092 50.6868 77.0759 50.7403 77.4491 51.0515C77.8223 51.3627 78.5 51.93 79.0057 52.3186C79.5114 52.7072 79.8246 52.8998 80.0347 53.0205C80.2448 53.1412 80.3424 53.184 80.4029 53.214C80.4634 53.2441 80.4839 53.2602 80.5206 53.2767" stroke="#D4C7BA" stroke-linecap="round"/>
<path d="M77.2108 56.4959C77.2108 56.5013 77.2108 56.5066 76.3508 56.7796C75.4909 57.0527 73.771 57.5932 72.8439 57.877C71.9169 58.1608 71.8347 58.1715 71.759 58.177C71.6834 58.1825 71.6166 58.1825 71.5479 58.1825" stroke="#D4C7BA" stroke-linecap="round"/>
<path d="M76.5885 56.6743C76.4704 56.7546 76.3523 56.8349 75.678 57.1197C75.0036 57.4046 73.7766 57.8916 72.9494 58.188C72.1222 58.4844 71.7321 58.5753 71.3976 58.6302C71.0631 58.6851 70.7961 58.7012 70.5211 58.7177" stroke="#D4C7BA" stroke-linecap="round"/>
<path d="M42.3273 48.345C42.5325 48.3183 43.073 48.2643 43.4988 48.3974C43.6837 48.4553 43.6436 48.797 43.5797 48.9342C43.5158 49.0714 43.3881 49.0714 43.2712 49.0447C43.1542 49.0181 43.052 48.9648 42.9738 48.8841C42.8956 48.8034 42.8445 48.6969 42.8693 48.6154C42.8941 48.5338 42.9963 48.4806 43.1767 48.4531C43.3571 48.4257 43.6126 48.4257 43.8759 48.4257" stroke="#CE7E7E" stroke-linecap="round"/>
<path d="M42.9467 48.5064C42.8956 48.5064 42.6394 48.5064 42.342 48.5596C42.2587 48.5746 42.3769 48.7194 42.4806 48.7743C42.8559 48.9728 43.306 48.9632 43.9637 48.9507C44.1124 48.9478 44.184 48.8308 44.2235 48.7364C44.263 48.6419 44.263 48.5354 44.1991 48.4672C43.8389 48.0826 43.0784 48.3982 42.8039 48.4256C42.6409 48.4419 43.4531 48.4256 43.6521 48.4523C43.8511 48.4789 43.7489 48.5322 43.6707 48.6129C43.5925 48.6936 43.5414 48.8001 43.4895 48.9083C43.4376 49.0164 43.3865 49.123 43.3339 49.2328" stroke="#CE7E7E" stroke-linecap="round"/>
<path d="M43.4897 48.7485C43.4897 48.8018 43.4897 49.0157 43.4767 49.3515C43.4638 49.5008 43.438 49.6073 43.4246 49.7288C43.4113 49.8502 43.4113 49.9834 43.4113 50.1206" stroke="#CE7E7E" stroke-linecap="round"/>
<path d="M43.0242 48.1028C43.306 48.1295 43.9765 48.2368 44.4806 48.2909C44.5996 48.3037 44.6997 48.3708 44.7268 48.4515C44.548 48.8284 44.1871 49.1505 43.8643 49.4604C43.7737 49.5282 43.6715 49.5815 43.5662 49.7171" stroke="#CE7E7E" stroke-linecap="round"/>
<path d="M43.2565 48.1835C43.2309 48.1835 43.2054 48.1835 43.0517 48.1835C42.898 48.1835 42.6169 48.1835 42.421 48.1969C42.2251 48.2102 42.1229 48.2368 42.0176 48.345" stroke="#CE7E7E" stroke-linecap="round"/>
<path d="M56.6761 27.195C56.6676 27.2708 56.6334 27.36 56.5756 27.4562C56.4683 27.6346 56.3976 27.7489 56.2071 28.0213C56.0627 28.228 55.9599 28.2593 55.8741 28.3218C55.7696 28.398 55.6557 28.4737 55.4498 28.5767C55.3883 28.6074 55.3377 28.6171 55.2375 28.6572C55.0433 28.7348 54.7853 28.787 54.5773 28.8205C54.4678 28.8382 54.2665 28.8541 53.9815 28.8876C53.8119 28.9076 53.7373 28.9035 53.6266 28.9102C53.3634 28.9261 53.1582 28.9169 53.0876 28.9236C52.8884 28.9425 52.6825 28.9661 52.5148 28.9884C52.455 28.9963 52.3562 29.0062 52.147 29.0264C51.8104 29.0332 51.5749 29.0376 51.4832 29.0444C51.4211 29.0466 51.3277 29.0466 51.2314 29.0332" stroke="#D4C7BA" stroke-linecap="round"/>
<path d="M31.203 26.9435C31.263 27.0148 31.3312 27.1039 31.3959 27.1869C31.4262 27.2258 31.4474 27.2919 31.5326 27.4807C31.6007 27.6318 31.7366 27.8865 31.8384 28.1007C31.9403 28.3149 32.0082 28.4787 32.1197 28.6871C32.2312 28.8955 32.3841 29.1434 32.5032 29.311C32.6879 29.5708 32.8627 29.6847 33.0019 29.7607C33.2487 29.8416 33.468 29.8685 33.5281 29.8597C33.5499 29.8508 33.5541 29.8331 33.5585 29.8149" stroke="#D4C7BA" stroke-linecap="round"/>
<path d="M31.6406 27.7887C31.7595 27.9127 31.8973 28.0563 32.0853 28.2346C32.1935 28.3372 32.3413 28.4483 32.4837 28.5431C32.7538 28.7228 32.9827 28.8082 33.139 28.8551C33.214 28.8776 33.2825 28.8887 33.5342 28.9553C33.7858 29.022 34.2191 29.1415 34.5399 29.2208C34.8608 29.3001 35.0562 29.3355 35.2971 29.3582C35.5379 29.3809 35.8182 29.3897 35.986 29.3899C36.1538 29.39 36.2005 29.3812 36.2395 29.3766C36.2784 29.372 36.3081 29.372 36.3388 29.372" stroke="#D4C7BA" stroke-linecap="round"/>
<path d="M11.1188 27.8534C11.7087 19.1231 20.3427 1.27023 20.3427 1.27023L33.3646 27.8534H45.3013H55.0678L69.1749 1.27023C69.1749 1.27023 76.2543 22.763 76.771 25.0254C77.1116 26.5165 77.7214 30.6604 78.4009 34.6406H96.8465L83.8246 42.559L88.7078 48.7806L78.4009 49.9446L85.9949 55.5678L75.1646 58.3958C73.5561 61.5545 71.544 64.4102 69.1749 66.3142C61.7914 72.2483 46.9291 71.9702 43.131 71.9702C39.3329 71.9702 29.0718 70.6925 20.3427 64.0518C15.1781 60.1229 13.3873 56.4789 12.4001 51.6086H3.52261L11.6888 47.0838C11.6177 46.5341 11.5471 45.969 11.4749 45.387H1.89487L10.869 40.2966L1.89487 32.9438L10.6859 36.3374C10.679 33.6995 10.8933 31.191 11.1188 27.8534Z" fill="#D4C7BA"/>
<path d="M78.4009 34.6406C77.7214 30.6604 77.1116 26.5165 76.771 25.0254C76.2543 22.763 69.1749 1.27023 69.1749 1.27023L55.0678 27.8534H45.3013H33.3646L20.3427 1.27023C20.3427 1.27023 11.7087 19.1231 11.1188 27.8534C10.8933 31.191 10.679 33.6995 10.6859 36.3374M78.4009 34.6406C78.7525 36.6998 79.1227 38.7151 79.4839 40.2966C79.9151 42.1844 79.5215 45.8534 78.4009 49.9446M78.4009 34.6406H96.8465L83.8246 42.559L88.7078 48.7806L78.4009 49.9446M78.4009 49.9446L85.9949 55.5678L75.1646 58.3958M78.4009 49.9446C77.6439 52.7086 76.5551 55.6654 75.1646 58.3958M75.1646 58.3958C73.5561 61.5545 71.544 64.4102 69.1749 66.3142C61.7914 72.2483 46.9291 71.9702 43.131 71.9702C39.3329 71.9702 29.0718 70.6925 20.3427 64.0518C15.1781 60.1229 13.3873 56.4789 12.4001 51.6086M10.6859 36.3374L1.89487 32.9438L10.869 40.2966M10.6859 36.3374C10.6892 37.5933 10.7427 38.8786 10.869 40.2966M10.869 40.2966C10.9327 41.0125 11.015 41.7622 11.1188 42.559C11.2472 43.5453 11.3631 44.4863 11.4749 45.387M10.869 40.2966L1.89487 45.387H11.4749M11.4749 45.387C11.5471 45.969 11.6177 46.5341 11.6888 47.0838M11.4749 45.387L11.6888 47.0838M11.6888 47.0838L3.52261 51.6086H12.4001M11.6888 47.0838C11.9002 48.7165 12.1172 50.2129 12.4001 51.6086" stroke="black"/>
<path d="M9.89798 37.2208C9.92437 37.2243 9.99058 37.2381 10.0637 37.2502C10.1327 37.2617 10.2196 37.2623 10.2993 37.271C10.3225 37.2735 10.3489 37.2727 10.6976 37.2967C11.0463 37.3207 11.7166 37.3686 12.0702 37.3951C12.4735 37.4284 12.5397 37.4353 12.5996 37.4405C12.6162 37.4422 12.6359 37.4457 12.6761 37.4492" stroke="#D4C7BA" stroke-linecap="round"/>
<path d="M10.7145 38.4145C10.7014 38.4145 10.6815 38.4214 10.6583 38.4386C10.6099 38.4745 10.6183 38.5561 10.5836 38.5978C10.5748 38.6084 10.5588 38.6082 10.5569 38.6185C10.5519 38.6468 10.6014 38.6945 10.8187 38.8953C11.0066 39.069 11.3646 39.3736 11.8628 39.7345C12.3611 40.0955 12.992 40.4997 13.3252 40.7113C13.6585 40.9229 13.6749 40.9298 13.6918 40.9369" stroke="#D4C7BA" stroke-linecap="round"/>
<path d="M8.54373 43.1296C8.56345 43.1159 8.59332 43.0917 8.71027 43.0041C8.80645 42.9321 8.98166 42.8103 9.15517 42.6766C9.32868 42.5428 9.49627 42.4024 9.59739 42.3146C9.69851 42.2269 9.72808 42.196 9.81725 42.1202C9.90642 42.0444 10.0543 41.9245 10.1436 41.849C10.2329 41.7736 10.2592 41.7462 10.3796 41.6361C10.4999 41.5261 10.7135 41.3343 10.8498 41.2064C10.9861 41.0784 11.0387 41.0202 11.2251 40.848C11.4116 40.6759 11.7303 40.3916 11.9143 40.2314C12.1914 40.0088 12.2378 39.9846 12.2742 39.9673C12.291 39.9603 12.3041 39.9569 12.3276 39.9533" stroke="#D4C7BA" stroke-linecap="round"/>
<path d="M12.7956 44.2481C12.7431 44.2686 12.5451 44.2827 12.2731 44.2896C12.1455 44.2928 11.9641 44.3 11.7169 44.3017C11.6242 44.3024 11.5979 44.3068 11.3067 44.3069C11.0155 44.307 10.4602 44.3035 10.1495 44.2983C9.83874 44.2931 9.78945 44.2863 9.69998 44.2828C9.31423 44.2675 9.20793 44.2481 9.12991 44.2309C9.03642 44.2102 8.87674 44.1825 8.75158 44.1565C8.64739 44.1348 8.54098 44.1167 8.43463 44.0959C8.31514 44.0855 8.19565 44.0716 8.04813 44.0527C8.01293 44.0475 7.98992 44.044 7.95627 44.0405" stroke="#D4C7BA" stroke-linecap="round"/>
<path d="M12.0986 42.442C12.092 42.442 12.0163 42.442 11.6719 42.5019C11.3975 42.5496 10.9298 42.6817 11.013 42.6613C11.0963 42.6408 11.7469 42.4764 11.9572 42.3609C12.1116 42.2761 11.5947 42.0893 11.4754 42.0238C11.3728 41.9674 11.3352 41.8989 11.3253 41.8558C11.3087 41.784 11.3252 41.719 11.3203 41.6896C11.3146 41.6553 11.1242 41.7559 10.8591 41.932C10.7393 42.0116 10.6597 42.0876 10.5895 42.164C10.4545 42.3109 10.3762 42.4792 10.3528 42.6585C10.3397 42.7583 10.4016 42.879 10.4483 42.951C10.5214 43.0639 10.664 43.0785 10.8754 43.0958C11.0173 43.1074 11.2313 43.0926 11.3643 43.0856C11.4974 43.0787 11.5434 43.0718 11.5736 43.0683C11.6169 43.0632 11.463 43.1401 11.1812 43.2714C11.0069 43.3526 10.9338 43.414 10.9121 43.44C10.9011 43.4532 10.9961 43.4385 11.2154 43.3853C11.3821 43.3423 11.6615 43.267 11.8793 43.2213C12.0971 43.1756 12.245 43.1619 12.3973 43.1478" stroke="#D4C7BA" stroke-linecap="round"/>
<path d="M10.8838 50.1673C10.8904 50.1741 10.9201 50.1845 10.9911 50.1949C11.0973 50.2104 11.3105 50.1813 11.5428 50.1553C11.6434 50.1441 11.6737 50.1431 11.7872 50.1379C12.0747 50.1248 12.2548 50.143 12.2266 50.1551C12.1318 50.1958 11.9566 50.2501 11.6287 50.3038C11.3911 50.3426 11.3158 50.3298 11.2459 50.3368C11.2258 50.3388 11.1997 50.347 11.1976 50.3523C11.1718 50.4186 11.3383 50.3713 11.5105 50.3834C11.539 50.3854 11.5247 50.4091 11.5064 50.4231C11.4881 50.437 11.4651 50.4473 11.4451 50.4577C11.425 50.4682 11.4086 50.4785 11.4543 50.4838C11.7351 50.5162 11.7963 50.4994 11.8659 50.508C11.9412 50.5174 12.0121 50.5132 12.3312 50.527C12.6272 50.5397 13.1958 50.5544 13.4968 50.565C13.8477 50.5825 13.8942 50.5859 13.9355 50.5911C13.9636 50.5928 14.0063 50.5928 14.0503 50.5928" stroke="#D4C7BA" stroke-linecap="round"/>
<path d="M10.3062 49.2538C10.3491 49.2538 10.5144 49.1922 10.689 49.0399C10.7788 48.9615 10.8833 48.8909 10.9728 48.8201C11.1318 48.6941 11.2918 48.5793 11.4474 48.4378C11.5116 48.3794 11.5574 48.344 11.6365 48.2769C11.6977 48.2251 11.8076 48.1448 12.0902 47.9826C12.3728 47.8203 12.8263 47.5806 13.0681 47.4502C13.363 47.2817 13.4425 47.2266 13.5272 47.1832C13.5521 47.1711 13.5817 47.1539 13.6221 47.1363" stroke="#D4C7BA" stroke-linecap="round"/>
<path d="M10.8539 49.6275C10.8441 49.6344 10.8342 49.6412 10.8423 49.6482C10.8503 49.6551 10.8766 49.662 11.0742 49.5919C11.2717 49.5217 11.6398 49.3744 12.0265 49.1855C12.4133 48.9966 12.8076 48.7705 13.0041 48.6558C13.2007 48.541 13.1876 48.5445 13.1496 48.5599C13.1116 48.5754 13.0492 48.6028 12.9168 48.6888C12.7844 48.7749 12.5839 48.9188 12.415 49.058C12.246 49.1972 12.1145 49.3273 12.078 49.3704C11.9669 49.5016 12.3274 49.1297 12.3557 49.0554C12.3678 49.0235 12.3609 48.9983 12.3428 48.9756C12.3007 48.9231 12.1955 48.901 12.0072 48.8889C11.8817 48.8808 11.6941 48.8939 11.5188 48.9179C11.3434 48.942 11.1857 48.9831 11.0749 49.0163C10.964 49.0494 10.9049 49.0734 10.8728 49.0961C10.8407 49.1187 10.8374 49.1392 10.8488 49.1584C10.8603 49.1775 10.8866 49.1947 10.9691 49.2189C11.0517 49.2431 11.1897 49.274 11.6025 49.3207C12.0154 49.3674 12.6988 49.429 13.074 49.4677C13.4491 49.5063 13.4951 49.52 13.5138 49.5407C13.5326 49.5615 13.5227 49.5889 13.2794 49.6989C13.0361 49.809 12.5596 50.0008 12.306 50.0996C12.0523 50.1984 12.0359 50.1984 12.0389 50.1864C12.042 50.1744 12.065 50.1505 12.0817 50.1313C12.0985 50.112 12.1084 50.0983 12.1185 50.0842" stroke="#D4C7BA" stroke-linecap="round"/>
<path d="M12.6562 47.7072C12.6398 47.7279 12.5801 47.7693 12.4973 47.8177C12.3407 47.9092 12.2051 47.9528 12.1337 47.9856C12.0319 48.0324 11.9428 48.067 11.8054 48.1273C11.7182 48.1656 11.6475 48.2052 11.5613 48.2485C11.3878 48.3355 11.3255 48.3852 11.2476 48.4284C11.1019 48.5092 10.977 48.6136 10.9271 48.6551C10.8543 48.7156 10.8043 48.745 10.7462 48.7797C10.6554 48.834 10.5325 48.9387 10.474 48.9821C10.4046 49.0336 10.2933 49.0807 10.1595 49.1702C9.92697 49.3256 9.74552 49.4302 9.69095 49.4595C9.61644 49.4994 9.55961 49.5444 9.45252 49.6216C9.20335 49.8013 9.03186 49.9595 8.98391 50.0043C8.8764 50.1049 8.75365 50.1598 8.66348 50.2104C8.6468 50.2191 8.63037 50.2293 8.60876 50.2398C8.58716 50.2502 8.56087 50.2605 8.53378 50.2711" stroke="#D4C7BA" stroke-linecap="round"/>
<path d="M81.2335 38.7153C81.1737 38.7568 81.114 38.7983 80.506 38.9805C79.8979 39.1627 78.7433 39.4844 78.0141 39.7071C77.0075 40.0147 76.6398 40.2239 76.5437 40.3234C76.5182 40.3498 76.6567 40.371 77.2406 40.2363C77.8245 40.1016 78.8796 39.8214 79.4629 39.6771C80.0463 39.5328 80.1259 39.5328 80.147 39.5639C80.3283 39.8311 79.507 40.7005 79.3881 41.2662C79.3499 41.4483 79.824 41.3985 80.225 41.3152C81.0875 41.136 81.3635 40.676 81.4641 40.5139C81.5085 40.4422 81.485 40.3622 81.4251 40.2989C81.2832 40.1487 80.924 40.1302 80.4578 40.1717C79.9302 40.2187 79.4461 40.527 79.0346 40.8249C78.6573 41.0982 78.4592 41.418 78.3687 41.6378C78.3306 41.7302 78.3379 41.7953 78.4325 41.8274C78.7038 41.9194 79.339 41.6208 80.0422 41.2126C80.3215 41.0504 80.4269 40.9496 80.4983 40.834C80.5696 40.7185 80.5995 40.5836 80.58 40.4933C80.5605 40.4031 80.4909 40.3616 80.3903 40.335C80.1647 40.2755 79.7881 40.2978 79.3266 40.3498C78.4781 40.4455 77.9579 41.0609 77.7852 41.319C77.7585 41.3589 77.7847 41.408 77.8346 41.4294C77.9651 41.4852 78.2257 41.3781 78.5765 41.1954C79.0041 40.9727 79.4017 40.6141 79.748 40.2431C80.079 39.8884 80.1675 39.4819 80.1728 39.1891C80.1782 38.8889 79.8979 38.6326 79.5371 38.413C79.3425 38.2945 79.0968 38.2141 78.6403 38.1245C78.1838 38.0349 77.5169 37.9519 77.1236 37.9091C76.7303 37.8664 76.6307 37.8664 76.6342 37.8353C76.6377 37.8041 76.7472 37.7419 77.127 37.5801C77.5069 37.4183 78.1539 37.1589 78.5519 36.989C78.9499 36.8191 79.0793 36.7464 79.1211 36.7038C79.1628 36.6612 79.1131 36.6509 78.3807 36.8167C77.6484 36.9826 76.235 37.325 75.4372 37.5325C74.6394 37.74 74.5001 37.8022 74.488 37.8603C74.476 37.9183 74.5954 37.9701 75.1446 38.0072C75.6939 38.0443 76.6693 38.0651 77.6048 38.0498C78.5403 38.0346 79.4062 37.9827 79.7677 37.9923C79.9755 37.9978 79.2283 38.3361 78.2593 38.6814C77.5837 38.9221 77.2132 39.1964 77.0072 39.3795C76.925 39.4526 76.9106 39.5108 76.9402 39.5479C77.1931 39.8653 78.2025 39.4815 78.762 39.3346C78.856 39.3099 78.5551 39.3536 78.4958 39.2921C78.0475 38.8272 79.0214 38.3713 79.0167 38.0456C79.015 37.9307 78.8914 37.8875 78.8359 37.8614C78.687 37.7914 79.1414 37.5944 79.2969 37.4795C79.376 37.421 79.4424 37.3438 79.5132 38.0638C79.5839 38.7839 79.6536 40.2987 79.7343 41.3644C79.8149 42.4302 79.9045 43.0008 79.9905 43.383C80.1185 43.9522 80.268 44.1648 80.3829 44.4456C80.8783 45.6561 80.7409 46.0199 80.701 46.0983C80.6526 46.1932 80.5301 46.1984 80.4399 46.1881C80.1542 46.1552 79.8774 45.7287 79.6557 45.1945C79.5416 44.9197 79.5845 44.5031 79.6444 43.9494C79.7167 43.2803 79.8762 42.887 79.8513 42.8501C79.7983 42.7714 79.6756 43.0948 79.5206 43.7298C79.3994 44.226 79.256 45.0911 79.2039 45.3635C79.1517 45.6359 79.2114 45.2935 79.2521 44.837C79.2928 44.3805 79.3127 43.8202 79.2832 43.2877C79.2263 42.263 79.072 41.6925 79.0319 41.6655C78.9915 41.6382 78.9918 41.8771 78.9915 42.2531C78.9912 42.6292 79.0111 43.2102 79.0612 43.8364C79.1113 44.4625 79.1909 45.1162 79.2767 45.6034C79.4169 46.3991 79.6738 46.9298 79.8997 47.3016C80.0303 47.5165 80.1871 47.5712 80.3126 47.5974C80.4065 47.6171 80.4891 47.5507 80.5544 47.4776C80.6203 47.4038 80.61 47.2577 80.6052 47.1373C80.6032 47.0871 80.5506 47.0687 80.4405 47.0632C80.1515 47.0488 79.5884 47.2552 78.9457 47.5743C78.6768 47.7078 78.5418 47.8208 78.465 47.895C78.3883 47.9692 78.3783 48.0107 78.418 48.0321C78.5342 48.0948 78.8685 47.9601 79.285 47.7771C79.4752 47.6936 79.6119 47.6045 79.2109 47.5929C78.8099 47.5812 77.8644 47.6435 77.9048 47.5199C77.9452 47.3964 79.0003 47.0851 79.0262 46.9974C79.3239 45.9905 76.8808 47.2046 77.2181 47.023C77.6115 46.8113 78.511 46.4783 78.9923 46.2653C79.4735 46.0522 79.5233 46.0004 79.529 45.9581C79.4949 45.8847 78.8467 45.8422 77.8472 45.8057C77.4548 45.7796 77.2955 45.7381 77.1314 45.6954" stroke="#D4C7BA" stroke-linecap="round"/>
<path d="M79.385 35.774C79.3439 35.774 79.3028 35.774 78.6117 35.79C77.9205 35.8061 76.5806 35.8382 75.2 35.8713" stroke="#D4C7BA" stroke-linecap="round"/>
<path d="M76.3824 50.8603C76.3926 50.8603 76.4029 50.8603 76.5545 51.0021C76.7061 51.1439 76.9987 51.4275 77.3446 51.7182C77.6904 52.0088 78.0806 52.2978 78.7565 52.6741C79.4324 53.0504 80.3822 53.5053 80.9023 53.7584C81.4224 54.0115 81.484 54.049 81.563 54.0875" stroke="#D4C7BA" stroke-linecap="round"/>
<path d="M79.9295 52.92C79.9192 52.9093 79.7855 52.7967 79.1521 52.3643C78.6554 52.0252 77.7691 51.4983 77.2886 51.2092C76.7517 50.8986 76.6524 50.8551 76.5799 50.82C76.5485 50.8063 76.528 50.801 76.5068 50.8117" stroke="#D4C7BA" stroke-linecap="round"/>
<path d="M79.1827 52.3847C79.1416 52.315 79.0069 52.1635 78.6385 51.8679C78.3766 51.6578 77.8653 51.3108 77.4341 51.0565C77.0029 50.8022 76.659 50.6631 76.4458 50.5807C76.1608 50.4769 76.0559 50.4495 75.999 50.4387C75.9729 50.4333 75.9523 50.4279 75.9156 50.4224" stroke="#D4C7BA" stroke-linecap="round"/>
<path d="M78.9027 51.8982C78.9027 51.8875 78.877 51.8446 78.4992 51.5737C78.1555 51.3273 77.4695 50.9122 76.9227 50.614C76.376 50.3159 75.9806 50.1607 75.7385 50.0727C75.4963 49.9847 75.4193 49.9687 75.3089 49.9359" stroke="#D4C7BA" stroke-linecap="round"/>
<path d="M78.856 51.6388C78.8251 51.6227 78.7322 51.5152 78.3975 51.1823C78.1309 50.917 77.6419 50.4854 77.3266 50.2138C77.0112 49.9423 76.8777 49.8513 76.7345 49.7643C76.5913 49.6773 76.4424 49.597 76.2735 49.5143" stroke="#D4C7BA" stroke-linecap="round"/>
<path d="M77.8137 49.1899C77.8188 49.1899 77.8239 49.1899 78.0679 49.1712C78.3118 49.1524 78.7944 49.115 79.7002 48.9592C80.6059 48.8034 81.9202 48.5305 82.6486 48.3685C83.377 48.2065 83.4797 48.1637 83.5531 48.1309C83.7339 48.0503 83.8596 48.0333 83.9715 48.0196C84.0829 48.006 84.1972 48.0007 84.2591 47.9926C84.3005 47.9898 84.3621 47.9898 84.4256 47.9898" stroke="#D4C7BA" stroke-linecap="round"/>
<path d="M78.3932 54.4038C78.347 54.2968 78.3008 54.1898 77.992 53.8536C77.6833 53.5175 77.1134 52.9556 76.7942 52.6313C76.4749 52.3071 76.4236 52.2375 76.5229 52.2632C76.6223 52.2889 76.8738 52.412 77.065 52.4968C77.2562 52.5816 77.3794 52.6244 77.543 52.6599C77.904 52.7381 78.262 52.7443 78.4748 52.7255C78.5397 52.7197 78.513 52.6906 78.3303 52.6823C78.1477 52.6739 77.8088 52.6793 77.4418 52.7302C77.0747 52.7811 76.6896 52.8774 76.4451 52.9511C76.1024 53.0544 75.9615 53.1601 75.876 53.2356C75.8091 53.2947 75.8106 53.3818 75.8209 53.4492C75.8329 53.5277 75.9191 53.598 76.0301 53.6735C76.1674 53.7668 76.3747 53.8036 76.6948 53.8279C76.9014 53.8437 77.1996 53.8362 77.5045 53.8095C77.8093 53.7827 78.1122 53.7292 78.2426 53.7043C78.373 53.6794 78.3216 53.6847 78.1129 53.7464C77.9042 53.808 77.5397 53.9257 77.1235 54.0988C76.7072 54.2718 76.2503 54.4966 75.9507 54.6552C75.5158 54.8855 75.3136 55.0519 75.1918 55.1626C75.1441 55.2059 75.1367 55.2358 75.1699 55.2603C75.2668 55.3317 75.4775 55.3282 75.9055 55.2613C76.2184 55.2124 76.7133 55.0606 77.0186 54.973C77.4239 54.8566 77.5528 54.7932 77.5789 54.7635C77.6136 54.7241 77.3882 54.7282 76.8886 54.8138C76.4887 54.8824 75.8038 55.0707 75.4391 55.1643C75.0744 55.2578 75.0539 55.2685 75.0818 55.2741C75.1098 55.2796 75.1868 55.2796 75.4754 55.2475C75.7641 55.2154 76.2621 55.1511 76.6367 55.118C77.0114 55.085 77.2475 55.085 77.3358 55.1037C77.4241 55.1224 77.3574 55.1599 76.9893 55.2809C76.6212 55.4019 75.9538 55.6052 75.5612 55.7314C75.1686 55.8576 75.071 55.9004 75.0105 55.9305C74.95 55.9606 74.9295 55.9766 75.1858 55.9688C75.4422 55.961 75.9762 55.9289 76.2589 55.9284C76.5417 55.928 76.5571 55.9601 76.2416 56.0462C75.9261 56.1323 75.2792 56.2714 75.4234 56.311C75.5676 56.3506 76.5225 56.2864 76.9939 56.2506C77.4653 56.2148 77.4243 56.2095 76.8563 56.2736C76.2884 56.3378 75.1949 56.4716 74.6213 56.5405C74.0477 56.6094 74.0271 56.6094 74.0499 56.6094C74.1394 56.6094 74.3314 56.6255 74.5618 56.6498C74.6689 56.6581 74.7561 56.6581 74.8461 56.6581" stroke="#D4C7BA" stroke-linecap="round"/>
<path d="M76.4173 56.9987C76.0888 57.095 75.7602 57.1914 75.0211 57.4336C74.2819 57.6759 73.1422 58.0613 72.5165 58.2651C71.8909 58.469 71.8139 58.4797 71.7345 58.4907" stroke="#D4C7BA" stroke-linecap="round"/>
<path d="M51.8508 40.8387H58.2772" stroke="black" stroke-width="3" stroke-linecap="round"/>
<path d="M28.8551 40.5159H34.8944" stroke="black" stroke-width="3" stroke-linecap="round"/>
<path d="M32.1845 53.1876C32.0823 53.1876 31.9785 53.2942 31.9011 53.5222C31.8191 53.7636 31.9259 54.1005 32.0927 54.4629C32.507 55.3626 33.7299 55.3394 34.4399 55.3802C35.6623 55.4503 37.2141 55.3943 37.8986 55.3402C38.5487 55.2888 39.5586 54.8051 40.2481 54.5335C41.0024 54.2363 41.9123 53.8075 42.4416 53.4447C42.8695 53.1513 43.1008 52.7583 43.2681 52.5702C43.3494 52.4787 43.4609 52.4354 43.5519 52.5145C44.0706 52.9655 44.5418 53.7219 45.3187 54.0747C45.8437 54.313 46.3257 54.4241 47.9079 54.9879C49.7953 55.6604 51.744 55.1796 52.3777 54.9907C53.1956 54.747 54.3006 54.5597 54.8426 54.3588C55.0646 54.2764 55.2824 54.2643 55.4755 54.1437C55.6636 54.0262 55.7477 53.8075 55.7864 53.5795C55.7996 53.3248 55.6974 53.0012 55.5042 52.6787C55.4132 52.5428 55.3366 52.4628 55.2576 52.3805" stroke="black" stroke-width="2" stroke-linecap="round"/>
<path d="M44.1856 48.345C43.6738 48.345 42.5364 48.4515 42.006 48.573C42.0672 48.7727 42.4025 49.0431 42.802 49.2715C42.9716 49.3668 43.0738 49.4201 43.3339 49.4749" stroke="#CE7E7E" stroke-linecap="round"/>
<path d="M59.4313 45.6501C59.4313 45.7058 59.4313 45.7615 59.4982 46.8771C59.565 47.9926 59.6987 50.1662 59.7809 51.3555C59.8631 52.5449 59.8898 52.6843 59.9174 52.8278" stroke="#D5A198" stroke-linecap="round"/>
<path d="M62.5096 46.8323C62.7769 48.1978 63.0442 49.5632 63.2354 50.6846C63.4266 51.8061 63.5335 52.6421 63.6437 53.5034" stroke="#D5A198" stroke-linecap="round"/>
<path d="M26.5423 46.4101C26.7295 48.3608 26.9166 50.3114 27.013 51.4557C27.1094 52.5999 27.1094 52.8785 26.9474 53.419" stroke="#D5A198" stroke-linecap="round"/>
<path d="M23.5451 47.1701C23.652 48.3405 23.759 49.5109 23.8141 50.5318C23.8691 51.5527 23.8691 52.3887 23.8558 52.8891C23.8424 53.3894 23.8157 53.5287 23.7881 53.6723" stroke="#D5A198" stroke-linecap="round"/>
<path d="M27.9468 63.1949C28.0957 63.4676 28.7702 64.0932 30.8501 65.4812C31.5955 65.9786 32.5894 66.4377 33.5904 66.8139C34.5915 67.1902 35.5964 67.423 38.5894 67.6981C41.5824 67.9733 46.5329 68.2837 49.5857 68.366C53.6427 68.4754 54.865 68.0556 55.2772 67.8992C56.2431 67.5328 56.8941 66.9198 57.5337 66.2936C58.3616 65.7052 59.1117 64.9233 59.5279 64.2554C59.6034 64.0979 59.6779 63.9427 59.9802 63.43" stroke="black" stroke-linecap="round"/>
<path d="M50.1686 56.1149C50.9351 56.3611 52.6 56.6724 53.4191 56.5493C53.7345 56.5018 53.9699 56.1474 54.0898 56.0531C54.8288 55.4717 52.9048 57.3506 52.5612 57.9401C52.2266 58.5143 52.1294 59.8238 52.4396 60.8189C52.8035 61.9865 53.2275 62.6464 53.3915 63.2666C53.7166 64.4962 53.4966 66.5783 53.3037 67.3387C53.1422 67.9753 52.903 68.5925 52.6949 69.32C52.3593 70.4933 52.0118 70.9469 51.8184 71.4736C51.553 72.1965 51.1499 72.4659 51.0897 72.6206C50.7759 73.4276 53.2257 72.6229 54.6936 72.2206C55.0118 72.1334 55.1277 72.0655 55.0265 72.0952C54.1182 72.3622 53.1758 72.4966 51.3919 72.5597C51.0117 72.5732 53.0706 72.4055 54.117 72.2508C54.5608 72.0971 54.9209 71.8797 55.158 71.6478C55.2774 71.5387 55.395 71.4467 55.6945 71.259" stroke="#BAEEFF" stroke-linecap="round"/>
<path d="M51.5946 56.3007C51.5357 56.5163 51.2987 57.0719 51.2675 58.1394C51.2492 58.7659 52.0366 59.5767 52.4698 60.2322C52.843 60.7968 52.9903 61.4702 53.0946 62.1047C53.228 62.9165 53.1989 63.5439 53.2728 64.2718C53.4124 65.645 52.9921 66.2085 52.6062 66.7817C52.0936 67.5431 51.4769 68.6241 51.2242 69.1816C51.0616 69.6127 50.9119 69.988 50.8227 70.5264C50.7924 70.9422 50.7924 71.6474 50.7924 72.3739" stroke="#BAEEFF" stroke-linecap="round"/>
<path d="M11.1877 38.2395C11.2023 38.2446 11.2168 38.2496 11.2049 38.2547C11.1572 38.2753 10.8476 38.2701 10.543 38.2676C10.505 38.2673 10.7038 38.26 10.9177 38.2423C11.1316 38.2245 11.3546 38.1942 11.4574 38.1735C11.5601 38.1528 11.5359 38.1427 11.4919 38.1325C11.3857 38.1077 11.0775 38.1067 10.6933 38.1194C10.4611 38.1271 10.3753 38.1528 10.2946 38.1299C10.2624 38.1171 10.2478 38.102 10.2718 38.0942C10.2959 38.0864 10.3589 38.0864 10.4238 38.0864" stroke="#D4C7BA" stroke-linecap="round"/>
</svg>
